<svg width="2100px" height="2970px" version="1.1" xmlns="http://www.w3.org/2000/svg" xmlns:xlink="http://www.w3.org/1999/xlink" xmlns:mei="http://www.music-encoding.org/ns/mei" overflow="visible">
   <desc>Engraved by Verovio 4.5.1-deb523f</desc>
   <defs>
      <symbol id="E084-wkxt47" viewBox="0 0 1000 1000" overflow="inherit">
         <path transform="scale(1,-1)" d="M20 -78c84 97 114 180 134 329h170c-13 -32 -82 -132 -99 -151l-84 -97c-33 -36 -59 -63 -80 -81h162v102l127 123v-225h57v-39h-57v-34c0 -43 19 -65 57 -65v-34h-244v36c48 0 60 26 60 70v27h-203v39z" />
      </symbol>
      <symbol id="E0A2-wkxt47" viewBox="0 0 1000 1000" overflow="inherit">
         <path transform="scale(1,-1)" d="M198 133c102 0 207 -45 207 -133c0 -92 -118 -133 -227 -133c-101 0 -178 46 -178 133c0 88 93 133 198 133zM293 -21c0 14 -3 29 -8 44c-7 20 -18 38 -33 54c-20 21 -43 31 -68 31l-20 -2c-15 -5 -27 -14 -36 -28c-4 -9 -6 -17 -8 -24s-3 -16 -3 -27c0 -15 3 -34 9 -57 s18 -41 34 -55c15 -15 36 -23 62 -23c4 0 10 1 18 2c19 5 32 15 40 30s13 34 13 55z" />
      </symbol>
      <symbol id="E050-wkxt47" viewBox="0 0 1000 1000" overflow="inherit">
         <path transform="scale(1,-1)" d="M441 -245c-23 -4 -48 -6 -76 -6c-59 0 -102 7 -130 20c-88 42 -150 93 -187 154c-26 44 -43 103 -48 176c0 6 -1 13 -1 19c0 54 15 111 45 170c29 57 65 106 110 148s96 85 153 127c-3 16 -8 46 -13 92c-4 43 -5 73 -5 89c0 117 16 172 69 257c34 54 64 82 89 82 c21 0 43 -30 69 -92s39 -115 41 -159v-15c0 -109 -21 -162 -67 -241c-13 -20 -63 -90 -98 -118c-13 -9 -25 -19 -37 -29l31 -181c8 1 18 2 28 2c58 0 102 -12 133 -35c59 -43 92 -104 98 -184c1 -7 1 -15 1 -22c0 -123 -87 -209 -181 -248c8 -57 17 -110 25 -162 c5 -31 6 -58 6 -80c0 -30 -5 -53 -14 -70c-35 -64 -88 -99 -158 -103c-5 0 -11 -1 -16 -1c-37 0 -72 10 -108 27c-50 24 -77 59 -80 105v11c0 29 7 55 20 76c18 28 45 42 79 44h6c49 0 93 -42 97 -87v-9c0 -51 -34 -86 -105 -106c17 -24 51 -36 102 -36c62 0 116 43 140 85 c9 16 13 41 13 74c0 20 -1 42 -5 67c-8 53 -18 106 -26 159zM461 939c-95 0 -135 -175 -135 -286c0 -24 2 -48 5 -71c50 39 92 82 127 128c40 53 60 100 60 140v8c-4 53 -22 81 -55 81h-2zM406 119l54 -326c73 25 110 78 110 161c0 7 0 15 -1 23c-7 95 -57 142 -151 142h-12 zM382 117c-72 -2 -128 -47 -128 -120v-7c2 -46 43 -99 75 -115c-3 -2 -7 -5 -10 -10c-70 33 -116 88 -123 172v11c0 68 44 126 88 159c23 17 49 29 78 36l-29 170c-21 -13 -52 -37 -92 -73c-50 -44 -86 -84 -109 -119c-45 -69 -67 -130 -67 -182v-13c5 -68 35 -127 93 -176 s125 -73 203 -73c25 0 50 3 75 9c-19 111 -36 221 -54 331z" />
      </symbol>
   </defs>
   <style type="text/css">g.page-margin{font-family:Times,serif;} g.ending, g.fing, g.reh, g.tempo{font-weight:bold;} g.dir, g.dynam, g.mNum{font-style:italic;} g.label{font-weight:normal;}</style>
   <svg class="definition-scale" color="black" viewBox="0 0 21000 29700">
      <g class="page-margin" transform="translate(500, 500)">
         <g id="m1c8v69x" class="mdiv pageMilestone" />
         <g id="s1t6my9q" class="score pageMilestone" />
         <g id="s1w6zlhv" class="system">
            <g id="l1n4zuop" class="label">
               <text x="1105" y="990" text-anchor="end" font-size="0px">
                  <tspan id="t1twd96k" class="text">
                     <tspan font-size="405px">Piano</tspan>
                  </tspan>
               </text>
            </g>
            <g id="st8n6q6" class="section systemMilestone" />
            <g id="m1vm1j8b" class="measure">
               <g id="s1bnsr86" class="staff">
                  <path d="M1285 540 L4171 540" stroke="currentColor" stroke-width="13" />
                  <path d="M1285 720 L4171 720" stroke="currentColor" stroke-width="13" />
                  <path d="M1285 900 L4171 900" stroke="currentColor" stroke-width="13" />
                  <path d="M1285 1080 L4171 1080" stroke="currentColor" stroke-width="13" />
                  <path d="M1285 1260 L4171 1260" stroke="currentColor" stroke-width="13" />
                  <g id="cdet9hz" class="clef">
                     <use xlink:href="#E050-wkxt47" x="1375" y="1080" height="720px" width="720px" />
                  </g>
                  <g id="kmkrs6j" class="keySig" />
                  <g id="m4ptgyk" class="meterSig">
                     <use xlink:href="#E084-wkxt47" x="2006" y="720" height="720px" width="720px" />
                     <use xlink:href="#E084-wkxt47" x="2006" y="1080" height="720px" width="720px" />
                  </g>
                  <g class="ledgerLines below">
                     <path d="M2520 1440 L2906 1440" stroke="currentColor" stroke-width="22" />
                  </g>
                  <g id="lhjxc29" class="layer">
                     <g id="n1mf0pb3" class="note">
                        <g class="notehead">
                           <use xlink:href="#E0A2-wkxt47" x="2568" y="1440" height="720px" width="720px" />
                        </g>
                     </g>
                  </g>
               </g>
               <g id="b1svbgik" class="barLine">
                  <path d="M4158 540 L4158 1260" stroke="currentColor" stroke-width="27" />
               </g>
            </g>
            <g id="mud56d6" class="measure">
               <g id="s1c9y7c2" class="staff">
                  <path d="M4171 540 L5954 540" stroke="currentColor" stroke-width="13" />
                  <path d="M4171 720 L5954 720" stroke="currentColor" stroke-width="13" />
                  <path d="M4171 900 L5954 900" stroke="currentColor" stroke-width="13" />
                  <path d="M4171 1080 L5954 1080" stroke="currentColor" stroke-width="13" />
                  <path d="M4171 1260 L5954 1260" stroke="currentColor" stroke-width="13" />
                  <g id="lrv2xul" class="layer">
                     <g id="n1nvh78q" class="note">
                        <g class="notehead">
                           <use xlink:href="#E0A2-wkxt47" x="4351" y="1350" height="720px" width="720px" />
                        </g>
                     </g>
                  </g>
               </g>
               <g id="bzho9fu" class="barLine">
                  <path d="M5941 540 L5941 1260" stroke="currentColor" stroke-width="27" />
               </g>
            </g>
            <g id="smycwtx" class="systemMilestoneEnd st8n6q6" />
         </g>
         <g id="phydctj" class="pageMilestoneEnd s1t6my9q" />
         <g id="p11demxw" class="pageMilestoneEnd m1c8v69x" />
      </g>
   </svg>
</svg>
