<svg width="1200px" height="194px" version="1.1" xmlns="http://www.w3.org/2000/svg" xmlns:xlink="http://www.w3.org/1999/xlink" xmlns:mei="http://www.music-encoding.org/ns/mei" overflow="visible">
   <desc>Engraved by Verovio 4.5.1-deb523f</desc>
   <defs>
      <symbol id="E0A3-1xag255" viewBox="0 0 1000 1000" overflow="inherit">
         <path transform="scale(1,-1)" d="M278 64c0 22 -17 39 -43 39c-12 0 -26 -3 -41 -10c-85 -43 -165 -94 -165 -156c5 -25 15 -32 49 -32c67 11 200 95 200 159zM0 -36c0 68 73 174 200 174c66 0 114 -39 114 -97c0 -84 -106 -173 -218 -173c-64 0 -96 32 -96 96z" />
      </symbol>
      <symbol id="E082-1xag255" viewBox="0 0 1000 1000" overflow="inherit">
         <path transform="scale(1,-1)" d="M124 -185c-18 0 -55 -14 -65 -65h-36l-3 30c0 25 6 45 18 63c11 19 22 30 39 43l121 82l37 29c15 11 27 29 38 54c12 24 18 47 18 70c0 40 -19 88 -94 88c-25 0 -32 0 -50 -8c-14 -5 -23 -12 -26 -22c3 -9 7 -15 10 -18l24 -17c12 -7 17 -11 27 -21c5 -7 7 -16 7 -27 c0 -12 0 -57 -79 -74c-30 0 -76 26 -76 94c0 66 81 135 197 135c72 0 181 -32 181 -150c0 -53 -32 -95 -113 -133l-91 -41c-26 -11 -45 -23 -57 -37l49 7c84 0 115 -41 148 -41c20 0 33 20 39 61h35c0 -152 -68 -168 -114 -168c-17 0 -65 0 -79 7h10l-28 17 c-49 37 -69 40 -87 42z" />
      </symbol>
      <symbol id="E084-1xag255" viewBox="0 0 1000 1000" overflow="inherit">
         <path transform="scale(1,-1)" d="M20 -78c84 97 114 180 134 329h170c-13 -32 -82 -132 -99 -151l-84 -97c-33 -36 -59 -63 -80 -81h162v102l127 123v-225h57v-39h-57v-34c0 -43 19 -65 57 -65v-34h-244v36c48 0 60 26 60 70v27h-203v39z" />
      </symbol>
      <symbol id="E0A4-1xag255" viewBox="0 0 1000 1000" overflow="inherit">
         <path transform="scale(1,-1)" d="M0 -39c0 68 73 172 200 172c66 0 114 -37 114 -95c0 -84 -106 -171 -218 -171c-64 0 -96 30 -96 94z" />
      </symbol>
      <symbol id="E050-1xag255" viewBox="0 0 1000 1000" overflow="inherit">
         <path transform="scale(1,-1)" d="M441 -245c-23 -4 -48 -6 -76 -6c-59 0 -102 7 -130 20c-88 42 -150 93 -187 154c-26 44 -43 103 -48 176c0 6 -1 13 -1 19c0 54 15 111 45 170c29 57 65 106 110 148s96 85 153 127c-3 16 -8 46 -13 92c-4 43 -5 73 -5 89c0 117 16 172 69 257c34 54 64 82 89 82 c21 0 43 -30 69 -92s39 -115 41 -159v-15c0 -109 -21 -162 -67 -241c-13 -20 -63 -90 -98 -118c-13 -9 -25 -19 -37 -29l31 -181c8 1 18 2 28 2c58 0 102 -12 133 -35c59 -43 92 -104 98 -184c1 -7 1 -15 1 -22c0 -123 -87 -209 -181 -248c8 -57 17 -110 25 -162 c5 -31 6 -58 6 -80c0 -30 -5 -53 -14 -70c-35 -64 -88 -99 -158 -103c-5 0 -11 -1 -16 -1c-37 0 -72 10 -108 27c-50 24 -77 59 -80 105v11c0 29 7 55 20 76c18 28 45 42 79 44h6c49 0 93 -42 97 -87v-9c0 -51 -34 -86 -105 -106c17 -24 51 -36 102 -36c62 0 116 43 140 85 c9 16 13 41 13 74c0 20 -1 42 -5 67c-8 53 -18 106 -26 159zM461 939c-95 0 -135 -175 -135 -286c0 -24 2 -48 5 -71c50 39 92 82 127 128c40 53 60 100 60 140v8c-4 53 -22 81 -55 81h-2zM406 119l54 -326c73 25 110 78 110 161c0 7 0 15 -1 23c-7 95 -57 142 -151 142h-12 zM382 117c-72 -2 -128 -47 -128 -120v-7c2 -46 43 -99 75 -115c-3 -2 -7 -5 -10 -10c-70 33 -116 88 -123 172v11c0 68 44 126 88 159c23 17 49 29 78 36l-29 170c-21 -13 -52 -37 -92 -73c-50 -44 -86 -84 -109 -119c-45 -69 -67 -130 -67 -182v-13c5 -68 35 -127 93 -176 s125 -73 203 -73c25 0 50 3 75 9c-19 111 -36 221 -54 331z" />
      </symbol>
      <symbol id="E260-1xag255" viewBox="0 0 1000 1000" overflow="inherit">
         <path transform="scale(1,-1)" d="M20 110c32 16 54 27 93 27c26 0 35 -3 54 -13c13 -7 24 -20 27 -38l4 -25c0 -28 -16 -57 -45 -89c-23 -25 -39 -44 -65 -68l-88 -79v644h20v-359zM90 106c-32 0 -48 -10 -70 -29v-194c31 31 54 59 71 84c21 32 32 59 32 84c0 9 1 16 1 20c0 14 -3 21 -11 30l-8 3z" />
      </symbol>
      <symbol id="E4C0-1xag255" viewBox="0 0 1000 1000" overflow="inherit">
         <path transform="scale(1,-1)" d="M0 0c0 0 40 320 300 320s300 -320 300 -320h-32s-38 227 -268 227s-268 -227 -268 -227h-32zM355 52c0 -30 -25 -55 -55 -55s-55 25 -55 55s25 55 55 55s55 -25 55 -55z" />
      </symbol>
      <symbol id="E240-1xag255" viewBox="0 0 1000 1000" overflow="inherit">
         <path transform="scale(1,-1)" d="M179 -646c15 29 29 55 46 102c18 49 30 108 30 138c0 105 -80 173 -168 200c-18 5 -47 9 -87 16v190h22c8 0 33 -61 71 -95c4 -3 -2 3 61 -56c62 -58 122 -137 122 -241c0 -38 -13 -106 -35 -163c-20 -51 -43 -99 -66 -132c-6 -5 -10 -7 -13 -7s-5 2 -5 5l4 10 c1 3 14 25 18 33z" />
      </symbol>
      <symbol id="E4E6-1xag255" viewBox="0 0 1000 1000" overflow="inherit">
         <path transform="scale(1,-1)" d="M0 123c7 34 33 56 69 60c29 -3 43 -9 53 -29c4 -8 7 -15 10 -22c0 -21 -1 -25 -11 -35c-5 -8 -18 -14 -40 -20l12 -3l15 -1c44 0 97 26 122 56c10 11 18 26 24 42c7 1 15 2 22 3l-140 -424h-36l111 330c-10 -6 -27 -12 -53 -16l-52 -8h-10l-20 1c-1 0 -8 3 -21 6 c-37 9 -55 28 -55 60z" />
      </symbol>
      <symbol id="E52F-1xag255" viewBox="0 0 1000 1000" overflow="inherit">
         <path transform="scale(1,-1)" d="M555 376c0 -38 -19 -68 -50 -76c-18 0 -28 11 -30 32c0 29 18 51 37 62c3 3 5 5 5 6l-6 9c-5 3 -10 5 -17 5c-37 0 -67 -52 -88 -156h75v-38h-83c-15 -93 -59 -250 -92 -318c-15 -31 -32 -58 -50 -80c-16 -21 -37 -36 -63 -43l-19 -2c-43 0 -66 40 -66 87 c0 39 18 53 44 67c24 0 38 -25 38 -49c0 -15 -11 -36 -32 -65c0 -5 3 -7 9 -7c34 0 61 46 82 139c7 29 13 59 20 89c13 61 26 121 39 182h-161c-14 -94 -56 -241 -94 -318c-33 -72 -69 -113 -110 -123l-18 -2c-21 0 -38 9 -49 26c-5 6 -10 15 -15 28c-2 12 -3 19 -4 33 c3 22 3 33 13 46c7 9 18 16 33 21c23 0 36 -26 37 -49c0 -11 -2 -17 -5 -23l-14 -23l-15 -19c0 -5 3 -7 10 -7c27 0 44 29 54 50l14 36l15 53c14 63 28 127 41 191l17 80h-57v38h70c20 67 51 121 103 159c25 17 52 25 83 25c33 0 49 -32 49 -66c0 -38 -18 -71 -51 -76 c-17 0 -26 11 -28 32c0 11 3 24 10 37c7 11 16 20 27 25c3 3 5 5 5 6c-7 10 -11 14 -25 14c-22 0 -40 -16 -54 -47s-25 -67 -33 -107h164c22 83 87 182 186 182c36 0 47 -31 49 -66z" />
      </symbol>
   </defs>
   <style type="text/css">g.page-margin{font-family:Times,serif;} g.ending, g.fing, g.reh, g.tempo{font-weight:bold;} g.dir, g.dynam, g.mNum{font-style:italic;} g.label{font-weight:normal;}</style>
   <svg class="definition-scale" color="black" viewBox="0 0 12000 1940">
      <g class="page-margin" transform="translate(0, 0)">
         <g id="m1anjbfq" class="mdiv pageMilestone" />
         <g id="spbmfh" class="score pageMilestone" />
         <g id="s1phej2r" class="system">
            <g id="sbsa4ls" class="section systemMilestone" />
            <g id="mn6dtqr" class="measure">
               <g id="sypussb" class="staff">
                  <path d="M0 686 L3789 686" stroke="currentColor" stroke-width="13" />
                  <path d="M0 866 L3789 866" stroke="currentColor" stroke-width="13" />
                  <path d="M0 1046 L3789 1046" stroke="currentColor" stroke-width="13" />
                  <path d="M0 1226 L3789 1226" stroke="currentColor" stroke-width="13" />
                  <path d="M0 1406 L3789 1406" stroke="currentColor" stroke-width="13" />
                  <g id="c1pu3wc9" class="clef">
                     <use xlink:href="#E050-1xag255" x="90" y="1226" height="720px" width="720px" />
                  </g>
                  <g id="k1ke9ggs" class="keySig">
                     <g id="ksazc61" class="keyAccid">
                        <use xlink:href="#E260-1xag255" x="735" y="1046" height="720px" width="720px" />
                     </g>
                     <g id="k6evbck" class="keyAccid">
                        <use xlink:href="#E260-1xag255" x="915" y="776" height="720px" width="720px" />
                     </g>
                     <g id="ksnzehr" class="keyAccid">
                        <use xlink:href="#E260-1xag255" x="1095" y="1136" height="720px" width="720px" />
                     </g>
                  </g>
                  <g id="m6axux" class="meterSig">
                     <use xlink:href="#E082-1xag255" x="1403" y="866" height="720px" width="720px" />
                     <use xlink:href="#E084-1xag255" x="1408" y="1226" height="720px" width="720px" />
                  </g>
                  <g id="l15riejx" class="layer">
                     <g id="ro7d98i" class="rest">
                        <use xlink:href="#E4E6-1xag255" x="1976" y="1046" height="720px" width="720px" />
                     </g>
                     <g id="nc6lcdm" class="note">
                        <g class="notehead">
                           <use xlink:href="#E0A4-1xag255" x="2426" y="1226" height="720px" width="720px" />
                        </g>
                        <g id="s17j54gu" class="stem">
                           <path d="M2643 1198 L2643 596" stroke="currentColor" stroke-width="18" />
                           <g id="f1i8nkku" class="flag">
                              <use xlink:href="#E240-1xag255" x="2634" y="596" height="720px" width="720px" />
                           </g>
                        </g>
                     </g>
                     <g id="bgkdckx" class="beam">
                        <polygon points="3084,641 3552,641 3552,731 3084,731" />
                        <g id="n1ft6r0d" class="note">
                           <g class="notehead">
                              <use xlink:href="#E0A4-1xag255" x="2876" y="1226" height="720px" width="720px" />
                           </g>
                           <g id="s1wcovw0" class="stem">
                              <path d="M3093 1198 L3093 659" stroke="currentColor" stroke-width="18" />
                           </g>
                        </g>
                        <g id="npc0xn2" class="note">
                           <g class="notehead">
                              <use xlink:href="#E0A4-1xag255" x="3326" y="1226" height="720px" width="720px" />
                           </g>
                           <g id="s3xe674" class="stem">
                              <path d="M3543 1198 L3543 659" stroke="currentColor" stroke-width="18" />
                           </g>
                        </g>
                     </g>
                  </g>
               </g>
               <g id="t12lh466" class="tempo" xml:lang="it">
                  <text x="1408" y="280" font-size="0px">
                     <tspan id="r1dlhv0s" class="rend" font-weight="bold">
                        <tspan id="t1vpj5ks" class="text">
                           <tspan font-size="405px">Allegro con brio</tspan>
                        </tspan>
                     </tspan>
                  </text>
               </g>
               <g id="d1ixn5sq" class="dynam">
                  <use xlink:href="#E52F-1xag255" x="2426" y="1769" height="720px" width="720px" />
               </g>
               <g id="bgck5g0" class="barLine">
                  <path d="M3776 686 L3776 1406" stroke="currentColor" stroke-width="27" />
               </g>
            </g>
            <g id="m1qbi4od" class="measure">
               <g id="s114mrn4" class="staff">
                  <path d="M3789 686 L5032 686" stroke="currentColor" stroke-width="13" />
                  <path d="M3789 866 L5032 866" stroke="currentColor" stroke-width="13" />
                  <path d="M3789 1046 L5032 1046" stroke="currentColor" stroke-width="13" />
                  <path d="M3789 1226 L5032 1226" stroke="currentColor" stroke-width="13" />
                  <path d="M3789 1406 L5032 1406" stroke="currentColor" stroke-width="13" />
                  <g id="l2v3fq2" class="layer">
                     <g id="n17czc7t" class="note">
                        <g class="notehead">
                           <use xlink:href="#E0A3-1xag255" x="3969" y="1406" height="720px" width="720px" />
                        </g>
                        <g id="sq2qd2a" class="stem">
                           <path d="M4186 1378 L4186 776" stroke="currentColor" stroke-width="18" />
                        </g>
                        <g id="a1ner24l" class="accid" />
                     </g>
                  </g>
               </g>
               <g id="f1akh5y9" class="fermata">
                  <use xlink:href="#E4C0-1xag255" x="3866" y="639" height="720px" width="720px" />
               </g>
               <g id="b1yk1dbh" class="barLine">
                  <path d="M5019 686 L5019 1406" stroke="currentColor" stroke-width="27" />
               </g>
            </g>
            <g id="m1eqitm2" class="measure">
               <g id="suc8quy" class="staff">
                  <path d="M5032 686 L7025 686" stroke="currentColor" stroke-width="13" />
                  <path d="M5032 866 L7025 866" stroke="currentColor" stroke-width="13" />
                  <path d="M5032 1046 L7025 1046" stroke="currentColor" stroke-width="13" />
                  <path d="M5032 1226 L7025 1226" stroke="currentColor" stroke-width="13" />
                  <path d="M5032 1406 L7025 1406" stroke="currentColor" stroke-width="13" />
                  <g id="l1gbh8qy" class="layer">
                     <g id="r1mq3tys" class="rest">
                        <use xlink:href="#E4E6-1xag255" x="5212" y="1046" height="720px" width="720px" />
                     </g>
                     <g id="n1hour22" class="note">
                        <g class="notehead">
                           <use xlink:href="#E0A4-1xag255" x="5662" y="1316" height="720px" width="720px" />
                        </g>
                        <g id="s1c0penk" class="stem">
                           <path d="M5879 1288 L5879 686" stroke="currentColor" stroke-width="18" />
                           <g id="f1ucrm16" class="flag">
                              <use xlink:href="#E240-1xag255" x="5870" y="686" height="720px" width="720px" />
                           </g>
                        </g>
                     </g>
                     <g id="b194dzki" class="beam">
                        <polygon points="6320,686 6788,686 6788,776 6320,776" />
                        <g id="n13r3pn7" class="note">
                           <g class="notehead">
                              <use xlink:href="#E0A4-1xag255" x="6112" y="1316" height="720px" width="720px" />
                           </g>
                           <g id="sgcvozc" class="stem">
                              <path d="M6329 1288 L6329 704" stroke="currentColor" stroke-width="18" />
                           </g>
                        </g>
                        <g id="n1ek9b2i" class="note">
                           <g class="notehead">
                              <use xlink:href="#E0A4-1xag255" x="6562" y="1316" height="720px" width="720px" />
                           </g>
                           <g id="s12kpawt" class="stem">
                              <path d="M6779 1288 L6779 704" stroke="currentColor" stroke-width="18" />
                           </g>
                        </g>
                     </g>
                  </g>
               </g>
               <g id="b1mcxxoc" class="barLine">
                  <path d="M7012 686 L7012 1406" stroke="currentColor" stroke-width="27" />
               </g>
            </g>
            <g id="m17mc6md" class="measure">
               <g id="s1xhiykf" class="staff">
                  <path d="M7025 686 L8268 686" stroke="currentColor" stroke-width="13" />
                  <path d="M7025 866 L8268 866" stroke="currentColor" stroke-width="13" />
                  <path d="M7025 1046 L8268 1046" stroke="currentColor" stroke-width="13" />
                  <path d="M7025 1226 L8268 1226" stroke="currentColor" stroke-width="13" />
                  <path d="M7025 1406 L8268 1406" stroke="currentColor" stroke-width="13" />
                  <g id="lmepicw" class="layer">
                     <g id="n1az8glw" class="note">
                        <g class="notehead">
                           <use xlink:href="#E0A3-1xag255" x="7205" y="1496" height="720px" width="720px" />
                        </g>
                        <g id="s1e0f8vn" class="stem">
                           <path d="M7422 1468 L7422 866" stroke="currentColor" stroke-width="18" />
                        </g>
                     </g>
                  </g>
               </g>
               <g id="t99nppn" class="tie">
                  <path d="M7476,1541 C7713,1648 8162,1648 8403,1541 C8175,1696 7700,1696 7476,1541" stroke="currentColor" stroke-linecap="round" stroke-linejoin="round" stroke-width="9" />
               </g>
               <g id="b1391gjo" class="barLine">
                  <path d="M8255 686 L8255 1406" stroke="currentColor" stroke-width="27" />
               </g>
            </g>
            <g id="m1ihznjc" class="measure">
               <g id="s1ez2b1x" class="staff">
                  <path d="M8268 686 L9511 686" stroke="currentColor" stroke-width="13" />
                  <path d="M8268 866 L9511 866" stroke="currentColor" stroke-width="13" />
                  <path d="M8268 1046 L9511 1046" stroke="currentColor" stroke-width="13" />
                  <path d="M8268 1226 L9511 1226" stroke="currentColor" stroke-width="13" />
                  <path d="M8268 1406 L9511 1406" stroke="currentColor" stroke-width="13" />
                  <g id="l1mzs5gi" class="layer">
                     <g id="nnat33x" class="note">
                        <g class="notehead">
                           <use xlink:href="#E0A3-1xag255" x="8448" y="1496" height="720px" width="720px" />
                        </g>
                        <g id="s1u4tpn" class="stem">
                           <path d="M8665 1468 L8665 866" stroke="currentColor" stroke-width="18" />
                        </g>
                     </g>
                  </g>
               </g>
               <g id="fhv633x" class="fermata">
                  <use xlink:href="#E4C0-1xag255" x="8345" y="639" height="720px" width="720px" />
               </g>
               <g id="bewa0sk" class="barLine">
                  <path d="M9498 686 L9498 1406" stroke="currentColor" stroke-width="27" />
               </g>
            </g>
            <g id="shcnnay" class="systemMilestoneEnd sbsa4ls" />
         </g>
         <g id="p11z8q9r" class="pageMilestoneEnd spbmfh" />
         <g id="powgv8s" class="pageMilestoneEnd m1anjbfq" />
      </g>
   </svg>
</svg>
